<svg xmlns="http://www.w3.org/2000/svg" version="1.1" id="Ebene_1" x="0" y="0" xml:space="preserve" viewBox="0 0 275 60">
	<path d="M258.221 22.82v-6.45c0-3.467 2.237-5.518 5.331-5.518 3.618 0 4.773 1.603 4.773 5.332v6.638h-2.498v3.318H275v-3.318h-2.982v-6.675c0-5.556-2.61-8.763-8.13-8.763-2.387 0-3.952.709-5.743 2.76l-.26-2.5h-6.227v3.282h2.908v11.896h-2.982v3.318h9.545v-3.318h-2.908zm-13.274-5.854c-.038 3.431-2.388 6.078-6.004 6.078-3.58 0-5.93-2.646-5.93-6.078 0-3.729 2.425-6.34 5.968-6.34 3.43.001 5.966 2.611 5.966 6.34m-15.625 0c0 5.443 3.917 9.546 9.621 9.546 5.743 0 9.657-4.102 9.657-9.546 0-5.63-3.84-9.695-9.657-9.695-5.63 0-9.62 4.102-9.62 9.695m-5.407-9.322h-6.488v3.244h2.797v11.933h-2.87v3.318h9.283v-3.318h-2.722zm-1.79-3.02c1.194 0 2.313-.82 2.313-2.275 0-1.53-1.12-2.349-2.313-2.349s-2.31.783-2.31 2.275c-.001 1.529 1.117 2.348 2.31 2.348m-12.977-2.162l-3.69.41v4.885h-3.581v3.17h3.581v8.986c0 4.214 2.162 6.6 6.115 6.488 1.268-.038 2.275-.298 3.542-.858l-1.043-3.057c-.747.373-1.53.596-2.312.596-1.865 0-2.647-1.193-2.647-3.17v-8.986h5.444V7.756h-5.408V2.461zm-21.888 8.464c4.327 0 6.564 2.91 6.414 6.415-.148 3.17-2.46 5.966-6.414 5.966-3.43 0-6.078-2.498-6.078-6.227 0-3.693 2.687-6.154 6.078-6.154m12.79 11.933h-2.871v-11.82h2.76V7.682h-6.34l-.036 2.833c-1.38-2.088-3.804-3.17-6.415-3.17-5.37 0-9.62 3.543-9.62 9.584 0 6.114 4.1 9.731 9.545 9.731 2.35-.037 4.924-.708 6.378-3.02 0-.522.447 2.983.447 2.5h6.152zm-25.132.745l-2.386-2.498c-1.156 1.342-3.02 1.864-4.625 1.864-3.056 0-6.338-2.125-6.338-6.04 0-3.468 2.348-6.227 6.152-6.303.783 0 2.201.076 3.058.412v2.945h3.281l.223-5.034c-2.05-1.007-4.287-1.603-6.637-1.603-4.996 0-9.77 2.647-9.77 9.583 0 6.19 4.848 9.546 9.956 9.546 2.611 0 5.11-.82 7.086-2.872m-22.446-.782V7.644h-6.675v3.244h2.982v6.489c0 3.094-2.087 5.48-5.22 5.518-3.766 0-5.22-1.828-5.22-5.296V7.644h-6.45v3.244h2.758v6.75c0 5.258 2.498 8.725 8.129 8.725 2.311-.037 4.399-.783 6.151-2.759l.671 2.536h5.817v-3.318h-2.943zm-34.79-12.119c3.132 0 5.964 2.31 5.964 6.189 0 3.804-3.095 6.041-6.04 6.041-3.282 0-5.966-2.2-5.966-6.041 0-4.139 2.797-6.189 6.041-6.189m12.678 12.119h-2.91V.037h-6.525v3.244h2.836v7.346c-1.344-2.274-4.066-3.281-6.526-3.281-5.183 0-9.286 3.207-9.286 9.583 0 6.152 4.103 9.509 9.323 9.509 2.647 0 5.034-1.082 6.526-3.356 0-.485.522 3.542.522 3.057h6.04zm-28.824-7.533H89.94c.596-3.02 3.207-4.735 6.04-4.735 3.132 0 5.333 1.678 5.556 4.735m2.462 8.092l-2.424-2.274c-1.156 1.304-3.505 2.013-5.407 2.013-3.431 0-5.93-2.013-6.227-4.772h15.139c.708-7.422-3.356-11.112-9.21-11.112-5.668 0-9.695 4.064-9.695 9.583 0 5.817 3.915 9.732 9.88 9.732 2.835 0 6.041-1.044 7.944-3.17m-23.753 3.206c1.156 0 2.349-.782 2.349-2.31 0-1.567-1.156-2.35-2.35-2.35-1.156 0-2.312.746-2.312 2.312 0 1.528 1.156 2.311 2.313 2.348m-20.248-.447H70.4v-3.58h-3.243V3.506h5.406l.186 3.99h3.469V.038h-22v7.459h3.43l.15-3.99h5.48V22.56h-3.281zm-14.99-10.963H35.2c1.305-3.02 2.834-6.227 5.071-11.299 2.126 4.923 3.43 8.204 4.736 11.3M36.43 3.58l-8.688 18.942h-2.424v3.617h9.658v-3.617h-3.02c.596-1.38 1.267-2.759 1.715-3.84h12.902c.522 1.118 1.007 2.498 1.678 3.84h-3.132v3.617h9.695v-3.617H52.39L42.508.037h-8.837V3.58zM10.366 22.597H7.01V17.04l2.834-2.685 5.78 8.465v3.318h8.613v-3.542h-4.176l-7.42-10.628 8.65-8.316h2.424V.037h-10.18v3.617h2.835l-9.36 8.651v-8.65h2.573V.036H0v3.617h3.132v18.944H.037v3.542h10.329z" id="title"/>
	<path d="M180.15 50.164v-1.612l.746-.61 1.855 2.56v.664H185v-1.003h-1.138l-2.141-2.899 2.236-1.87h.827v-.934h-3.144v.908l.868.027-.949.772-1.409 1.259v-5.741h-2.18v1.002h1.084v7.478h-1.098v1.002h3.157v-1.002h-.963zm-4.036-5.717h-2.194v.99h1.083v4.727h-1.112v1.003h3.305v-1.003h-1.083v-5.717zm-1.273-2.017c0 .974 1.464.974 1.464.013-.001-.976-1.464-.976-1.464-.013m-6.815 8.737v-1.003h-1.083v-2.6c0-1.315.895-2.168 2.113-2.168 1.368 0 1.91.65 1.91 2.086v2.682h-.975v1.003h3.225v-1.003h-1.138v-2.696c0-1.978-.975-3.116-2.927-3.116-.893 0-1.612.311-2.234 1.165l-.068-1.057h-2.113v.99h1.11v4.713h-1.138v1.003h3.318zm-10.228-5.582V41.67h-2.194v.976h1.098v7.545h-1.138v.975h3.319v-.975h-1.07v-2.574c0-1.232.88-2.18 2.127-2.18 1.205 0 1.882.73 1.882 2.072v2.682h-.906v.975h3.116v-.975h-1.112v-2.71c0-1.841-.921-3.088-2.805-3.088-.854 0-1.748.326-2.317 1.192m-2.993 4.66l-.718-.745c-.461.502-1.165.72-1.802.72-1.3 0-2.492-.855-2.492-2.399 0-1.463 1.003-2.452 2.438-2.465.38 0 .923.053 1.287.23v1.111h.99l.053-1.72a4.884 4.884 0 00-2.344-.624c-1.868 0-3.535 1.072-3.535 3.47 0 2.22 1.68 3.453 3.59 3.453.92-.001 1.829-.312 2.533-1.03m-10.567-4.918c1.315 0 2.207.704 2.262 1.991h-4.632c.19-1.287 1.206-1.991 2.37-1.991m-.026-1.002c-2.02 0-3.468 1.45-3.468 3.468 0 2.127 1.449 3.495 3.522 3.495 1.042 0 2.207-.392 2.884-1.192h.015l-.746-.677c-.446.542-1.367.84-2.127.84-1.286 0-2.303-.772-2.424-2.005h5.69c.257-2.67-1.3-3.93-3.346-3.93m-6.543-1.801l-1.112.123v1.842h-1.34v.948h1.34v3.536c0 1.476.679 2.316 2.114 2.29.447-.014.853-.123 1.3-.326l-.326-.921a2.176 2.176 0 01-.934.244c-.798 0-1.056-.502-1.056-1.288v-3.536h2.084v-.948h-2.07v-1.964zm-11 8.643v-1.003h-1.083v-2.6c0-1.315.893-2.168 2.114-2.168 1.367 0 1.91.65 1.91 2.086v2.682h-.976v1.003h3.225v-1.003h-1.138v-2.696c0-1.978-.975-3.116-2.927-3.116-.895 0-1.612.311-2.236 1.165l-.067-1.057h-2.114v.99h1.112v4.713h-1.138v1.003h3.318zm-8.981-.854c-1.341 0-2.398-.962-2.398-2.452 0-1.476 1.057-2.438 2.384-2.438 1.678 0 2.533 1.178 2.492 2.506-.04 1.246-.92 2.384-2.478 2.384m4.633-.135h-1.111v-4.701h1.083v-1.016h-2.153l-.016 1.192c-.487-.866-1.476-1.3-2.479-1.3-1.922 0-3.454 1.3-3.454 3.468 0 2.195 1.504 3.509 3.44 3.509.922 0 1.939-.325 2.466-1.246l.123 1.083h2.1v-.99zm-17.72-5.717v.989h1.098v4.742h-1.125v.975h3.319v-.975h-1.083v-2.764c0-1.274.704-1.978 1.977-2.004.447 0 .799.134 1.165.365l.5-.948a2.754 2.754 0 00-1.583-.501c-.827 0-1.654.298-2.087 1.03l-.121-.908h-2.06zm-4.389.867c1.314 0 2.209.704 2.263 1.991h-4.633c.19-1.287 1.205-1.991 2.37-1.991m-.027-1.002c-2.018 0-3.468 1.45-3.468 3.468 0 2.127 1.45 3.495 3.522 3.495 1.044 0 2.209-.392 2.886-1.192h.013l-.745-.677c-.447.542-1.368.84-2.126.84-1.287 0-2.303-.772-2.425-2.005h5.69c.257-2.67-1.301-3.93-3.347-3.93m-9.007 1.044c1.314 0 2.37.989 2.37 2.424 0 1.45-1.043 2.425-2.357 2.425-1.3 0-2.37-.88-2.37-2.412 0-1.597 1.07-2.437 2.357-2.437m3.522-3.684h-2.208v.974h1.097v3.021c-.474-.907-1.544-1.327-2.506-1.327-1.87 0-3.373 1.205-3.373 3.468 0 2.208 1.503 3.454 3.386 3.454 1.003 0 1.965-.434 2.506-1.341l.136 1.233h2.073v-1.003H94.7zm-12.937 9.482v-1.003h-1.084v-2.6c0-1.315.894-2.168 2.113-2.168 1.368 0 1.91.65 1.91 2.086v2.682h-.975v1.003h3.224v-1.003h-1.138v-2.696c0-1.978-.975-3.116-2.926-3.116-.894 0-1.612.311-2.235 1.165l-.068-1.057h-2.113v.99h1.11v4.713h-1.137v1.003h3.319zm-5.31-6.72h-2.195v.99h1.084v4.727H74.23v1.003h3.305v-1.003h-1.084zm-1.274-2.017c0 .974 1.463.974 1.463.013 0-.976-1.463-.976-1.463-.013m-6.625 7.734v-1.612l.745-.61 1.856 2.56v.664h2.249v-1.003h-1.138l-2.14-2.899 2.235-1.87h.826v-.934h-3.143v.908l.867.027-.948.772-1.41 1.259v-5.741h-2.18v1.002h1.084v7.478h-1.098v1.002h3.157v-1.002h-.962z" id="slogan"/>
	<g id="dots">
		<path id="dot1" d="M202.5 60c-6.893 0-12.5-5.608-12.5-12.5S195.607 35 202.5 35c6.892 0 12.5 5.608 12.5 12.5S209.393 60 202.5 60zm0-23.944c-6.31 0-11.444 5.133-11.444 11.444 0 6.31 5.133 11.444 11.443 11.444 6.311 0 11.445-5.133 11.445-11.444 0-6.31-5.134-11.444-11.445-11.444z"/>
		<path id="dot2" d="M232.5 60c-6.893 0-12.5-5.608-12.5-12.5S225.607 35 232.5 35c6.892 0 12.5 5.608 12.5 12.5S239.393 60 232.5 60zm0-23.944c-6.31 0-11.444 5.133-11.444 11.444 0 6.31 5.133 11.444 11.443 11.444 6.311 0 11.445-5.133 11.445-11.444 0-6.31-5.134-11.444-11.445-11.444z"/>
		<path id="dot3" d="M262.5 60c-6.893 0-12.5-5.608-12.5-12.5S255.607 35 262.5 35c6.892 0 12.5 5.608 12.5 12.5S269.393 60 262.5 60zm0-23.944c-6.31 0-11.444 5.133-11.444 11.444 0 6.31 5.133 11.444 11.443 11.444 6.311 0 11.445-5.133 11.445-11.444 0-6.31-5.134-11.444-11.445-11.444z"/>
	</g>
</svg>