<svg xmlns="http://www.w3.org/2000/svg" version="1.1" xmlns:xlink="http://www.w3.org/1999/xlink" xmlns:svgjs="http://svgjs.dev/svgjs" width="1000" height="1000"><style>
    #light-icon {
      display: inline;
    }
    #dark-icon {
      display: none;
    }

    @media (prefers-color-scheme: dark) {
      #light-icon {
        display: none;
      }
      #dark-icon {
        display: inline;
      }
    }
  </style><g id="light-icon"><svg xmlns="http://www.w3.org/2000/svg" version="1.1" xmlns:xlink="http://www.w3.org/1999/xlink" xmlns:svgjs="http://svgjs.dev/svgjs" width="1000" height="1000"><g clip-path="url(#SvgjsClipPath1077)"><rect width="1000" height="1000" fill="#ffffff"></rect><g transform="matrix(10,0,0,10,0,375)"><svg xmlns="http://www.w3.org/2000/svg" version="1.1" xmlns:xlink="http://www.w3.org/1999/xlink" xmlns:svgjs="http://svgjs.dev/svgjs" width="100" height="25"><svg xmlns:dc="http://purl.org/dc/elements/1.1/" xmlns:cc="http://creativecommons.org/ns#" xmlns:rdf="http://www.w3.org/1999/02/22-rdf-syntax-ns#" xmlns:svg="http://www.w3.org/2000/svg" xmlns="http://www.w3.org/2000/svg" xmlns:sodipodi="http://sodipodi.sourceforge.net/DTD/sodipodi-0.dtd" xmlns:inkscape="http://www.inkscape.org/namespaces/inkscape" version="1.1" id="kedu-shortlogo" x="0px" y="0px" width="100" height="25" viewBox="0 0 100 25" xml:space="preserve" sodipodi:docname="KEDU-shortlogo.svg" inkscape:version="0.92.4 (5da689c313, 2019-01-14)">
<path style="fill:#000000" d="m 49.643508,0 v 3.2680693 h 2.821109 V 20.777389 h -2.889868 v 3.33683 h 11.421953 c 8.427411,0 12.038235,-5.745996 12.071595,-12.281499 C 73.103497,5.2981511 69.217496,0 60.996702,0 Z M 0,0.03438167 V 3.3712133 H 2.8898695 V 20.84615 H 0.03438169 v 3.268069 H 9.5617192 V 20.84615 H 6.4673732 V 15.721476 L 9.08219,13.244181 14.413162,21.05425 v 3.059969 H 22.36075 V 20.84615 H 18.5082 l -6.845581,-9.802402 7.98017,-7.6725347 h 2.234805 V 0.03438167 H 12.487782 V 3.3712133 h 2.614814 L 6.4673732,11.353189 V 3.3712133 H 8.8415189 V 0.03438167 Z m 25.800727,0 V 3.3024505 h 2.821108 V 20.777389 h -2.889868 v 3.33683 H 46.0624 v -7.05186 h -3.233699 l -0.137518,3.64627 H 32.164959 V 13.484848 H 42.381741 V 10.148019 H 32.164959 V 3.3368319 h 10.010502 l 0.13752,3.6118849 h 3.233681 V 0.03438167 Z m 48.469111,0 V 3.3368319 h 2.683591 V 13.689335 c 0,7.1896 5.193462,10.424884 10.249347,10.424884 5.263428,0 10.079291,-3.337197 10.079291,-10.424884 V 3.3368319 H 100 V 0.03438167 H 90.67714 V 3.3368319 h 3.097904 V 13.620576 c 0,4.576886 -2.993259,7.121545 -6.570462,7.120619 -3.577187,0 -6.673658,-2.406418 -6.673658,-7.05186 V 3.3368319 h 3.096162 V 0.03438167 Z M 56.110888,3.3024505 h 4.885814 c 5.745203,0 8.496728,4.161745 8.461518,8.4958935 -0.06854,4.369359 -2.44207,9.01436 -8.461518,9.013418 h -4.885814 z" id="title" inkscape:connector-curvature="0"></path>
</svg></svg></g></g><defs><clipPath id="SvgjsClipPath1077"><rect width="1000" height="1000" x="0" y="0" rx="0" ry="0"></rect></clipPath></defs></svg></g><g id="dark-icon"><svg xmlns="http://www.w3.org/2000/svg" version="1.1" xmlns:xlink="http://www.w3.org/1999/xlink" xmlns:svgjs="http://svgjs.dev/svgjs" width="1000" height="1000"><g><g transform="matrix(10,0,0,10,0,375)" style="filter: invert(100%)"><svg xmlns="http://www.w3.org/2000/svg" version="1.1" xmlns:xlink="http://www.w3.org/1999/xlink" xmlns:svgjs="http://svgjs.dev/svgjs" width="100" height="25"><svg xmlns:dc="http://purl.org/dc/elements/1.1/" xmlns:cc="http://creativecommons.org/ns#" xmlns:rdf="http://www.w3.org/1999/02/22-rdf-syntax-ns#" xmlns:svg="http://www.w3.org/2000/svg" xmlns="http://www.w3.org/2000/svg" xmlns:sodipodi="http://sodipodi.sourceforge.net/DTD/sodipodi-0.dtd" xmlns:inkscape="http://www.inkscape.org/namespaces/inkscape" version="1.1" id="kedu-shortlogo" x="0px" y="0px" width="100" height="25" viewBox="0 0 100 25" xml:space="preserve" sodipodi:docname="KEDU-shortlogo.svg" inkscape:version="0.92.4 (5da689c313, 2019-01-14)">
<path style="fill:#000000" d="m 49.643508,0 v 3.2680693 h 2.821109 V 20.777389 h -2.889868 v 3.33683 h 11.421953 c 8.427411,0 12.038235,-5.745996 12.071595,-12.281499 C 73.103497,5.2981511 69.217496,0 60.996702,0 Z M 0,0.03438167 V 3.3712133 H 2.8898695 V 20.84615 H 0.03438169 v 3.268069 H 9.5617192 V 20.84615 H 6.4673732 V 15.721476 L 9.08219,13.244181 14.413162,21.05425 v 3.059969 H 22.36075 V 20.84615 H 18.5082 l -6.845581,-9.802402 7.98017,-7.6725347 h 2.234805 V 0.03438167 H 12.487782 V 3.3712133 h 2.614814 L 6.4673732,11.353189 V 3.3712133 H 8.8415189 V 0.03438167 Z m 25.800727,0 V 3.3024505 h 2.821108 V 20.777389 h -2.889868 v 3.33683 H 46.0624 v -7.05186 h -3.233699 l -0.137518,3.64627 H 32.164959 V 13.484848 H 42.381741 V 10.148019 H 32.164959 V 3.3368319 h 10.010502 l 0.13752,3.6118849 h 3.233681 V 0.03438167 Z m 48.469111,0 V 3.3368319 h 2.683591 V 13.689335 c 0,7.1896 5.193462,10.424884 10.249347,10.424884 5.263428,0 10.079291,-3.337197 10.079291,-10.424884 V 3.3368319 H 100 V 0.03438167 H 90.67714 V 3.3368319 h 3.097904 V 13.620576 c 0,4.576886 -2.993259,7.121545 -6.570462,7.120619 -3.577187,0 -6.673658,-2.406418 -6.673658,-7.05186 V 3.3368319 h 3.096162 V 0.03438167 Z M 56.110888,3.3024505 h 4.885814 c 5.745203,0 8.496728,4.161745 8.461518,8.4958935 -0.06854,4.369359 -2.44207,9.01436 -8.461518,9.013418 h -4.885814 z" id="title" inkscape:connector-curvature="0"></path>
</svg></svg></g></g></svg></g></svg>